<!DOCTYPE svg PUBLIC "-//W3C//DTD SVG 1.1//EN" "http://www.w3.org/Graphics/SVG/1.1/DTD/svg11.dtd">
<!-- Uploaded to: SVG Repo, www.svgrepo.com, Transformed by: SVG Repo Mixer Tools -->
<svg width="800px" height="800px" viewBox="0 0 64 64" xmlns="http://www.w3.org/2000/svg" xmlns:xlink="http://www.w3.org/1999/xlink" aria-hidden="true" role="img" class="iconify iconify--emojione" preserveAspectRatio="xMidYMid meet" fill="#000000">
<g id="SVGRepo_bgCarrier" stroke-width="0"/>
<g id="SVGRepo_tracerCarrier" stroke-linecap="round" stroke-linejoin="round"/>
<g id="SVGRepo_iconCarrier">
<circle cx="32" cy="32" r="30" fill="#ff8000"/>
<path d="M41.5 44c-2.2 2.3-5.4 3.4-9.5 3.4s-7.3-1.1-9.5-3.4c-2.9-2.8-4.4-6.8-4.4-12c0-5.3 1.5-9.3 4.4-12c2.2-2.3 5.4-3.4 9.5-3.4s7.3 1.1 9.5 3.4c2.9 2.7 4.4 6.7 4.4 12c0 5.2-1.5 9.2-4.4 12m-3.8-4.4c1.4-1.8 2.1-4.3 2.1-7.6s-.7-5.8-2.1-7.5s-3.3-2.7-5.7-2.7s-4.3.9-5.7 2.7s-2.1 4.3-2.1 7.6s.7 5.8 2.1 7.6s3.3 2.7 5.7 2.7s4.3-1.1 5.7-2.8" fill="#ffffff"/>
</g>
</svg>