<?xml version="1.0" encoding="iso-8859-1"?>
<!-- Generator: Adobe Illustrator 26.4.1, SVG Export Plug-In . SVG Version: 6.00 Build 0)  -->
<svg version="1.1" baseProfile="basic" id="&#x421;&#x43B;&#x43E;&#x439;_1"
	 xmlns="http://www.w3.org/2000/svg" xmlns:xlink="http://www.w3.org/1999/xlink" x="0px" y="0px" viewBox="0 0 50 50"
	 xml:space="preserve" >
<path stroke="rgba(237, 208, 106, 0.2)" stroke-width="0.2" fill-opacity="0" d="M46.468,36.588c-5.973,11.378-22.079,14.219-32.991,8.592c-3.713-1.877-6.983-4.786-8.844-8.433
	c2.561,3.173,5.887,5.493,9.503,7.018C24.98,48.259,38.906,46.042,46.468,36.588L46.468,36.588z"/>
<path stroke="rgba(237, 208, 106, 0.2)" stroke-width="0.2" fill-opacity="0" d="M42,2c-6.694,8.824-26.135,8.845-32.899,0.086C17.287,8.198,33.858,8.215,42,2L42,2z"/>
<path stroke="rgba(237, 208, 106, 0.2)" stroke-width="0.2" fill-opacity="0" d="M25.5,2c1.371,15.963,1.381,32.038,0,48C24.119,34.038,24.129,17.963,25.5,2L25.5,2z"/>
<path stroke="rgba(237, 208, 106, 0.2)" stroke-width="0.2" fill-opacity="0" d="M21.5,23c-4.694,0-8.5,3.806-8.5,8.5c0,4.694,3.806,8.5,8.5,8.5s8.5-3.806,8.5-8.5C30,26.806,26.194,23,21.5,23z M21.5,38
	c-4.142,0-7.5-2.91-7.5-6.5s3.358-6.5,7.5-6.5s7.5,2.91,7.5,6.5S25.642,38,21.5,38z"/>
<path stroke="rgba(237, 208, 106, 0.2)" stroke-width="0.2" fill-opacity="0" d="M29.5,23c-4.694,0-8.5,3.806-8.5,8.5c0,4.694,3.806,8.5,8.5,8.5s8.5-3.806,8.5-8.5C38,26.806,34.194,23,29.5,23z M29.5,38
	c-4.142,0-7.5-2.91-7.5-6.5s3.358-6.5,7.5-6.5s7.5,2.91,7.5,6.5S33.642,38,29.5,38z"/>
<path stroke="rgba(237, 208, 106, 0.2)" stroke-width="0.2" fill-opacity="0" d="M25.5,16c-4.694,0-8.5,3.806-8.5,8.5c0,4.694,3.806,8.5,8.5,8.5s8.5-3.806,8.5-8.5C34,19.806,30.194,16,25.5,16z M25.5,31
	c-4.142,0-7.5-2.91-7.5-6.5s3.358-6.5,7.5-6.5s7.5,2.91,7.5,6.5S29.642,31,25.5,31z"/>
<path stroke="rgba(237, 208, 106, 0.2)" stroke-width="0.2" fill-opacity="0" d="M25.5,20c-4.694,0-8.5,3.806-8.5,8.5c0,4.694,3.806,8.5,8.5,8.5s8.5-3.806,8.5-8.5C34,23.806,30.194,20,25.5,20z M25.5,35
	c-4.142,0-7.5-2.91-7.5-6.5s3.358-6.5,7.5-6.5s7.5,2.91,7.5,6.5S29.642,35,25.5,35z"/>
<circle stroke="rgba(237, 208, 106, 0.2)" stroke-width="0.2" fill-opacity="0" cx="25.5" cy="7.5" r="2.5"/>
</svg>